<svg width="130" height="45" viewBox="0 0 130 45" fill="none" xmlns="http://www.w3.org/2000/svg">
    <path
        d="M54.5669 16.4082C58.0095 10.9377 61.454 5.46826 64.9005 0C66.5231 2.51225 68.0947 5.05913 69.6952 7.58659C71.5525 10.5229 73.3877 13.4736 75.2578 16.4023C75.5376 16.91 75.8591 17.3932 76.1729 17.8814C77.2725 19.6579 78.3959 21.42 79.5065 23.1897C80.0599 23.9881 80.5579 24.823 80.9973 25.6885C80.6935 25.3616 80.4122 25.0148 80.1554 24.6503C75.2604 18.3342 70.365 12.0187 65.4694 5.70367C65.2883 5.45953 65.1012 5.21963 64.8962 4.9941C59.7299 11.6684 54.5593 18.3398 49.3844 25.0085C49.2055 25.2569 49.0103 25.4934 48.8002 25.7164C48.9263 25.4018 49.0875 25.1023 49.2807 24.8235C50.5002 22.8552 51.7673 20.9174 52.9732 18.9407C53.5447 18.1213 54.0439 17.2572 54.5669 16.4082Z"
        fill="#B23032">
    </path>
    <path
        d="M64.9028 4.99435L81.6052 26.535L64.9002 0.0026087V0L64.8995 0.00130435L64.8989 0V0.0026087L48.1939 26.535L64.8963 4.99435"
        fill="url(#paint0_linear)"/>
    <path d="M61.7862 12.6753H64.3154V16.0061H61.7862V12.6753Z" fill="#19478B"/>
    <path d="M65.5017 12.6753H68.0308V16.0061H65.5017V12.6753Z" fill="#ED6F12"/>
    <path d="M61.7862 16.9775H64.3154V20.3083H61.7862V16.9775Z" fill="#19478B"/>
    <path d="M65.5017 16.9775H68.0308V20.3083H65.5017V16.9775Z" fill="#19478B"/>
    <path d="M89.9109 17.9482H91.4682V19.9991H89.9109V17.9482Z" fill="#6C6B6A"/>
    <path d="M92.1987 17.9482H93.7561V19.9991H92.1987V17.9482Z" fill="#6C6B6A"/>
    <path d="M89.9109 20.5973H91.4682V22.6483H89.9109V20.5973Z" fill="#6C6B6A"/>
    <path d="M92.1987 20.5973H93.7561V22.6483H92.1987V20.5973Z" fill="#6C6B6A"/>
    <path d="M92.0085 13.2026L81.6052 26.535L92.0111 10.1328L102.062 26.1437L92.0085 13.2026Z" fill="#19478B"/>
    <path d="M92.0111 10.1328L75.2575 16.4022L81.6052 26.535L92.0111 10.1328Z" fill="url(#paint1_linear)"/>
    <path d="M39.9139 19.9991H38.3565V17.9481H39.9139V19.9991Z" fill="#6C6B6A"/>
    <path d="M37.626 19.9991H36.0687V17.9481H37.626V19.9991Z" fill="#6C6B6A"/>
    <path d="M39.9139 22.6483H38.3565V20.5973H39.9139V22.6483Z" fill="#6C6B6A"/>
    <path d="M37.626 22.6483H36.0687V20.5973H37.626V22.6483Z" fill="#6C6B6A"/>
    <path d="M37.8162 13.2026L48.2195 26.535L37.8136 10.1328L27.7629 26.1437L37.8162 13.2026Z" fill="#19478B"/>
    <path d="M37.8136 10.1328L54.5672 16.4022L48.2195 26.535L37.8136 10.1328Z" fill="url(#paint2_linear)"/>
    <path fill-rule="evenodd" clip-rule="evenodd"
          d="M0 44.6219H3.06009L4.08529 41.7942H9.77814L10.8033 44.6219H13.8634L7.82885 28.7874H6.03526L0 44.6219ZM8.75361 38.8537H5.10981L6.9317 33.5377L8.75361 38.8537Z"
          fill="#ED6F12"/>
    <path fill-rule="evenodd" clip-rule="evenodd"
          d="M15.4514 34.1395H21.482C22.2651 34.0734 23.0435 34.3124 23.6524 34.8061C24.1549 35.3587 24.4058 36.0927 24.3459 36.835C24.3692 37.3501 24.2325 37.8597 23.9543 38.2949C23.7198 38.6478 23.3833 38.9219 22.9891 39.0813C23.222 39.1463 23.445 39.242 23.6524 39.3658C23.8788 39.5006 24.0761 39.6787 24.2327 39.8897C24.411 40.1333 24.5485 40.404 24.6398 40.6912C24.7511 41.0422 24.8045 41.4088 24.7982 41.7768C24.8657 42.5586 24.616 43.3349 24.1046 43.933C23.5026 44.4408 22.7213 44.6888 21.9343 44.6219H15.4514V34.1395ZM21.6323 37.1346C21.668 36.8872 21.5842 36.6375 21.4062 36.4607C21.2283 36.2839 20.9769 36.2007 20.7277 36.2361H18.1651V38.3324H20.7277C20.9769 38.3678 21.2283 38.2846 21.4062 38.1079C21.5842 37.9311 21.668 37.6814 21.6323 37.4339V37.1346ZM21.8585 40.6536C22.0365 40.8303 22.1202 41.08 22.0845 41.3275V41.6268C22.1202 41.8743 22.0365 42.124 21.8585 42.3007C21.6805 42.4775 21.4291 42.5607 21.18 42.5253H18.1651V40.429H21.18C21.4291 40.3936 21.6805 40.4768 21.8585 40.6536Z"
          fill="#ED6F12"/>
    <path fill-rule="evenodd" clip-rule="evenodd"
          d="M25.4008 44.6219H28.3409L29.019 42.7499H32.7882L33.4662 44.6219H36.4063L32.4114 34.1396H29.3958L25.4008 44.6219ZM30.9036 37.2843L32.1094 40.8033H29.6977L30.9036 37.2843Z"
          fill="#ED6F12"/>
    <path
        d="M41.8336 42.4507C41.8195 43.0824 41.5727 43.687 41.14 44.1502C40.7026 44.5746 40.1075 44.7996 39.4967 44.7715C39.306 44.7715 39.1175 44.7641 38.9312 44.7491C38.7452 44.7341 38.5773 44.7166 38.4264 44.6969C38.2457 44.6768 38.0745 44.6517 37.9141 44.6219V42.6003H38.5922C38.7712 42.6051 38.9438 42.5344 39.0674 42.4058C39.1926 42.2765 39.2652 42.1057 39.2709 41.9264L39.7232 34.1396H48.0899V44.6219H45.3763V36.2362H42.2104L41.8336 42.4507Z"
        fill="#ED6F12"/>
    <path fill-rule="evenodd" clip-rule="evenodd"
          d="M56.2309 37.7335H52.6127V34.1396H49.899V44.6219H56.2309C57.0683 44.7746 57.9279 44.5087 58.5299 43.9106C59.132 43.3125 59.3996 42.4587 59.2458 41.6268V40.7283C59.3995 39.8965 59.1319 39.0428 58.5298 38.4447C57.9278 37.8467 57.0683 37.5808 56.2309 37.7335ZM56.306 40.0546C56.4839 40.2313 56.5677 40.4809 56.5321 40.7283V41.6268C56.5678 41.8743 56.4841 42.124 56.3061 42.3008C56.1281 42.4776 55.8767 42.5608 55.6276 42.5253H52.6126V39.8302H55.6276C55.8767 39.7947 56.128 39.8779 56.306 40.0546Z"
          fill="#ED6F12"/>
    <path fill-rule="evenodd" clip-rule="evenodd"
          d="M71.4572 34.1396H65.1254V44.6219H67.839V41.6268H71.4572C72.2881 41.7013 73.1148 41.4456 73.7563 40.9158C74.2898 40.2787 74.5472 39.4574 74.4721 38.6321V37.1347C74.5472 36.3093 74.2898 35.488 73.7563 34.8509C73.1149 34.321 72.2881 34.0652 71.4572 34.1396ZM71.5324 36.4607C71.7104 36.6375 71.7941 36.8872 71.7585 37.1347V38.632C71.7941 38.8795 71.7103 39.1292 71.5324 39.3059C71.3544 39.4827 71.1031 39.5659 70.8539 39.5305H67.839V36.2362H70.8539C71.1031 36.2007 71.3545 36.2839 71.5324 36.4607Z"
          fill="#19478B"/>
    <path
        d="M84.1957 44.6219H75.8289V34.1396H84.1957V36.2362H78.5426V38.2578H82.9898V40.354H78.5426V42.5253H84.1957V44.6219Z"
        fill="#19478B"/>
    <path
        d="M94.4476 38.7817L92.3372 42.5253H90.2262L88.1158 38.7817V44.6219H85.4021V34.1396H88.2667L91.2817 39.6802L94.2966 34.1396H97.1612V44.6219H94.4476V38.7817Z"
        fill="#19478B"/>
    <path fill-rule="evenodd" clip-rule="evenodd"
          d="M107.752 44.0602C108.354 43.4622 108.622 42.6086 108.468 41.7768L108.468 36.9847C108.543 36.1593 108.285 35.3382 107.752 34.7013C107.11 34.1713 106.284 33.9154 105.453 33.9899H101.684C100.853 33.9153 100.026 34.1712 99.3849 34.7013C98.8513 35.3383 98.5939 36.1594 98.6691 36.9847V41.7768C98.5152 42.6086 98.7828 43.4625 99.3849 44.0605C99.987 44.6586 100.847 44.9244 101.684 44.7715H105.453C106.291 44.9241 107.15 44.6582 107.752 44.0602ZM105.528 36.3108C105.706 36.4875 105.79 36.7372 105.754 36.9847V41.7768C105.79 42.0242 105.706 42.2739 105.528 42.4507C105.35 42.6274 105.099 42.7106 104.85 42.6753H102.287C102.038 42.7106 101.787 42.6274 101.609 42.4507C101.431 42.2739 101.347 42.0242 101.383 41.7768V36.9847C101.347 36.7372 101.431 36.4875 101.609 36.3108C101.787 36.134 102.038 36.0508 102.287 36.0862H104.85C105.099 36.0508 105.35 36.134 105.528 36.3108Z"
          fill="#19478B"/>
    <path
        d="M119.171 44.6219H116.458V40.354H112.689V44.6219H109.975V34.1396H112.689V38.2578H116.458V34.1396H119.171V44.6219Z"
        fill="#19478B"/>
    <path d="M124.352 44.6219H121.633V30.9376H116.161V28.7874H129.825V30.9376H124.352L124.352 44.6219Z" fill="#19478B"/>
    <path d="M15.4535 28.7866H116.809V30.9376H15.4535V28.7866Z" fill="#19478B"/>
</svg>
