<svg id="Ebene_1" xmlns="http://www.w3.org/2000/svg" width="84.8" height="84.8" viewBox="0 0 84.8 84.8">
    <style>.st0,.st1{fill-rule:evenodd;clip-rule:evenodd;fill:#2b2a29}.st1{fill:#ef7f2f}</style>
    <path class="st1"
          d="M4.1 62.1C1.5 56.7 0 50.7 0 44.4 0 21.2 19.3 3.2 41.9 4.2l-.6 12.4H40c-15.3 0-27.6 12.5-27.6 27.8 0 8.3 3.6 15.7 9.3 20.8-.3.9-.1 1.9.3 2.8-2.9-1.6-5.6-3.5-7.1-4.7-1.7-1.3-3.3-1.9-5.1-2.1-1.7-.2-3.3.1-5.2.7l-.5.2zm1.3 2.5c10.1 17.6 27.9 22.1 45.8 19.5 10.7-1.5 15.3-4.2 27.4-2.3-6-9.2-10.4-13.5-16.3-16.4-10.2-5-13.8-3.3-23.5-1.2-3.1.7-7.3 1.3-13.6 1.4-1.9 0-.1 2.4 1.3 3.2 3.7 2.2 13.9 1.4 15.7.9 4.1-1.2-1 5.1-13.3 3.8-5.2-.6-12.6-5.7-15.7-8-2.5-1.8-4.8-1.9-7.8-.9zm30.5-21.9c-1.6 0-2.8 1.3-2.8 2.9v6.7c0 1.6 1.3 2.9 2.8 2.9H44c1.6 0 2.8-1.3 2.8-2.9v-6.7c0-1.6-1.3-2.9-2.8-2.9h-8.1zm.5 6.5c-.8 0-1.5.7-1.5 1.5v1.2c0 .8.7 1.5 1.5 1.5h1.7c.8 0 1.5-.7 1.5-1.5v-1.2c0-.8-.7-1.5-1.5-1.5h-1.7zm5.5 0c-.8 0-1.5.7-1.5 1.5v1.2c0 .8.7 1.5 1.5 1.5h1.7c.8 0 1.5-.7 1.5-1.5v-1.2c0-.8-.7-1.5-1.5-1.5h-1.7zm-5.5-4.9c-.8 0-1.5.7-1.5 1.5V47c0 .8.7 1.5 1.5 1.5h1.7c.8 0 1.5-.7 1.5-1.5v-1.2c0-.8-.7-1.5-1.5-1.5h-1.7zm5.5 0c-.8 0-1.5.7-1.5 1.5V47c0 .8.7 1.5 1.5 1.5h1.7c.8 0 1.5-.7 1.5-1.5v-1.2c0-.8-.7-1.5-1.5-1.5h-1.7zm3-19.5c-5.6-5.3-3.7-5.8-9.7 0l-6.4 6-6.4 6c-5.1 4.8-7 4.7 1.7 4.6V63c.3-.1.6-.1 1-.1 3-.1 5.6-.2 7.8-.5 2.1-.2 3.8-.5 5.3-.9 1.6-.4 2.2-.5 2.8-.6 6-1.4 9.8-2.2 15.1-.9V41.4c7.7.1 7.1.5 1.6-4.6l-6.4-6-6.4-6zM80 44.4c0 9.2-3 17.6-8.2 24.4-1.5-1.5-3.2-2.8-5-3.9-1.7-1.1-3.5-2-5.4-2.9 3.9-4.8 6.2-10.9 6.2-17.6H80zm-12.4-1.3H85v-1.6c0-.3 0-.6-.1-.9 0-.2 0-.4-.1-.7l-17.4 1.7c.1.5.2 1 .2 1.5zm-.2-2.5c-.1-.7-.2-1.3-.3-2l11.8-2.7.3 1.5c.1.5.2 1.1.2 1.6l-12 1.6zm-1.3-5.3l12.5-4.2c-.2-.5-.3-1-.5-1.5l-.6-1.5-12.1 5.3c.3.7.5 1.3.7 1.9zm-1.3-3.2c-.2-.5-.5-.9-.7-1.4l14-9.1c.3.5.6.9.8 1.4.3.5.5.9.8 1.4l-14.9 7.7zm-3-4.7c-.4-.5-.8-1.1-1.3-1.6l8.9-8.2c.4.4.7.8 1 1.2.3.4.7.8 1 1.2l-9.6 7.4zm-4.3-4.5c-.4-.4-.9-.7-1.3-1L66 9c.4.3.8.7 1.2 1 .4.3.8.7 1.2 1L57.5 22.9zm-2.8-2c-.6-.4-1.2-.7-1.8-1L58.5 9c.5.3.9.5 1.4.8.5.3.9.5 1.3.8l-6.5 10.3zm-5.5-2.7l4.5-11.4c-.5-.2-1-.4-1.5-.5-.5-.2-1-.3-1.5-.5l-3.4 11.8c.7.1 1.3.3 1.9.6zm-3.4-1c-.5-.1-1-.2-1.6-.3L46.3.1c.5.1 1 .2 1.6.2.5.1 1 .2 1.6.3l-3.7 16.6zM59.6.6c-.4-.2-.8-.4-1.3-.6l-6.1 14.7c.2.1.5.2.7.3.2.1.5.2.7.3l7.2-14.1-1.2-.6zm14.6 8.8c.3.3.6.7 1 1L63.5 21.1c-.2-.2-.3-.4-.5-.5l-.5-.5L73.2 8.4l1 1zm5.7 7.6c-.3-.4-.5-.8-.8-1.1l-12.5 9.6c.2.2.3.4.4.6.1.2.3.4.4.6l13.3-8.6c-.3-.4-.6-.8-.8-1.1zm4.5 15.3c-.1-.4-.2-.9-.4-1.3l-15 4.7c.1.2.1.5.2.7.1.2.1.5.2.7l15.4-3.5c-.1-.4-.3-.9-.4-1.3z"/>
    </svg>
